<?xml version="1.0" encoding="UTF-8" standalone="no"?><svg xmlns="http://www.w3.org/2000/svg" xmlns:xlink="http://www.w3.org/1999/xlink" contentScriptType="application/ecmascript" contentStyleType="text/css" height="1566px" preserveAspectRatio="none" style="width:1034px;height:1566px;" version="1.1" viewBox="0 0 1034 1566" width="1034px" zoomAndPan="magnify"><defs><filter height="300%" id="f3j1keqatnkpx" width="300%" x="-1" y="-1"><feGaussianBlur result="blurOut" stdDeviation="2.0"/><feColorMatrix in="blurOut" result="blurOut2" type="matrix" values="0 0 0 0 0 0 0 0 0 0 0 0 0 0 0 0 0 0 .4 0"/><feOffset dx="4.0" dy="4.0" in="blurOut2" result="blurOut3"/><feBlend in="SourceGraphic" in2="blurOut3" mode="normal"/></filter></defs><g><!--MD5=[ad9b326356994341fa6b5225f5d2e1aa]
class C_0000373589578875245130--><rect fill="#FEFECE" filter="url(#f3j1keqatnkpx)" height="99.2188" id="C_0000373589578875245130" style="stroke: #A80036; stroke-width: 1.5;" width="267" x="302.5" y="1456"/><ellipse cx="400.25" cy="1472" fill="#ADD1B2" rx="11" ry="11" style="stroke: #A80036; stroke-width: 1.0;"/><path d="M403.2188,1477.6406 Q402.6406,1477.9375 402,1478.0781 Q401.3594,1478.2344 400.6563,1478.2344 Q398.1563,1478.2344 396.8281,1476.5938 Q395.5156,1474.9375 395.5156,1471.8125 Q395.5156,1468.6875 396.8281,1467.0313 Q398.1563,1465.375 400.6563,1465.375 Q401.3594,1465.375 402,1465.5313 Q402.6563,1465.6875 403.2188,1465.9844 L403.2188,1468.7031 Q402.5938,1468.125 402,1467.8594 Q401.4063,1467.5781 400.7813,1467.5781 Q399.4375,1467.5781 398.75,1468.6563 Q398.0625,1469.7188 398.0625,1471.8125 Q398.0625,1473.9063 398.75,1474.9844 Q399.4375,1476.0469 400.7813,1476.0469 Q401.4063,1476.0469 402,1475.7813 Q402.5938,1475.5 403.2188,1474.9219 L403.2188,1477.6406 Z "/><text fill="#000000" font-family="sans-serif" font-size="12" lengthAdjust="spacingAndGlyphs" textLength="63" x="420.75" y="1476.1543">Rectangle</text><line style="stroke: #A80036; stroke-width: 1.5;" x1="303.5" x2="568.5" y1="1488" y2="1488"/><ellipse cx="313.5" cy="1499" fill="#84BE84" rx="3" ry="3" style="stroke: #038048; stroke-width: 1.0;"/><text fill="#000000" font-family="sans-serif" font-size="11" lengthAdjust="spacingAndGlyphs" textLength="241" x="322.5" y="1502.2104">Rectangle(size_t i, size_t h, size_t w) : void</text><line style="stroke: #A80036; stroke-width: 1.5;" x1="303.5" x2="568.5" y1="1508.8047" y2="1508.8047"/><ellipse cx="313.5" cy="1519.8047" fill="none" rx="3" ry="3" style="stroke: #038048; stroke-width: 1.0;"/><text fill="#000000" font-family="sans-serif" font-size="11" lengthAdjust="spacingAndGlyphs" textLength="79" x="322.5" y="1523.0151">height : size_t</text><ellipse cx="313.5" cy="1532.6094" fill="none" rx="3" ry="3" style="stroke: #038048; stroke-width: 1.0;"/><text fill="#000000" font-family="sans-serif" font-size="11" lengthAdjust="spacingAndGlyphs" textLength="54" x="322.5" y="1535.8198">id : size_t</text><ellipse cx="313.5" cy="1545.4141" fill="none" rx="3" ry="3" style="stroke: #038048; stroke-width: 1.0;"/><text fill="#000000" font-family="sans-serif" font-size="11" lengthAdjust="spacingAndGlyphs" textLength="74" x="322.5" y="1548.6245">width : size_t</text><!--MD5=[b2b6d1633f9fae8f0c186bbeadb00f81]
class C_0001610257482604871553--><rect fill="#FEFECE" filter="url(#f3j1keqatnkpx)" height="86.4141" id="C_0001610257482604871553" style="stroke: #A80036; stroke-width: 1.5;" width="276" x="605" y="1462.5"/><ellipse cx="727.25" cy="1478.5" fill="#ADD1B2" rx="11" ry="11" style="stroke: #A80036; stroke-width: 1.0;"/><path d="M730.2188,1484.1406 Q729.6406,1484.4375 729,1484.5781 Q728.3594,1484.7344 727.6563,1484.7344 Q725.1563,1484.7344 723.8281,1483.0938 Q722.5156,1481.4375 722.5156,1478.3125 Q722.5156,1475.1875 723.8281,1473.5313 Q725.1563,1471.875 727.6563,1471.875 Q728.3594,1471.875 729,1472.0313 Q729.6563,1472.1875 730.2188,1472.4844 L730.2188,1475.2031 Q729.5938,1474.625 729,1474.3594 Q728.4063,1474.0781 727.7813,1474.0781 Q726.4375,1474.0781 725.75,1475.1563 Q725.0625,1476.2188 725.0625,1478.3125 Q725.0625,1480.4063 725.75,1481.4844 Q726.4375,1482.5469 727.7813,1482.5469 Q728.4063,1482.5469 729,1482.2813 Q729.5938,1482 730.2188,1481.4219 L730.2188,1484.1406 Z "/><text fill="#000000" font-family="sans-serif" font-size="12" lengthAdjust="spacingAndGlyphs" textLength="23" x="747.75" y="1482.6543">Pos</text><line style="stroke: #A80036; stroke-width: 1.5;" x1="606" x2="880" y1="1494.5" y2="1494.5"/><ellipse cx="616" cy="1505.5" fill="#84BE84" rx="3" ry="3" style="stroke: #038048; stroke-width: 1.0;"/><text fill="#000000" font-family="sans-serif" font-size="11" lengthAdjust="spacingAndGlyphs" textLength="250" x="625" y="1508.7104">operator==(const Pos &amp; other) const : bool</text><line style="stroke: #A80036; stroke-width: 1.5;" x1="606" x2="880" y1="1515.3047" y2="1515.3047"/><ellipse cx="616" cy="1526.3047" fill="none" rx="3" ry="3" style="stroke: #038048; stroke-width: 1.0;"/><text fill="#000000" font-family="sans-serif" font-size="11" lengthAdjust="spacingAndGlyphs" textLength="50" x="625" y="1529.5151">x : size_t</text><ellipse cx="616" cy="1539.1094" fill="none" rx="3" ry="3" style="stroke: #038048; stroke-width: 1.0;"/><text fill="#000000" font-family="sans-serif" font-size="11" lengthAdjust="spacingAndGlyphs" textLength="50" x="625" y="1542.3198">y : size_t</text><!--MD5=[9b1dc643a0190b1f71c1213bdac60939]
class C_0000236531466166773997--><rect fill="#FEFECE" filter="url(#f3j1keqatnkpx)" height="86.4141" id="C_0000236531466166773997" style="stroke: #A80036; stroke-width: 1.5;" width="323" x="427.5" y="1293"/><ellipse cx="545.75" cy="1309" fill="#ADD1B2" rx="11" ry="11" style="stroke: #A80036; stroke-width: 1.0;"/><path d="M548.7188,1314.6406 Q548.1406,1314.9375 547.5,1315.0781 Q546.8594,1315.2344 546.1563,1315.2344 Q543.6563,1315.2344 542.3281,1313.5938 Q541.0156,1311.9375 541.0156,1308.8125 Q541.0156,1305.6875 542.3281,1304.0313 Q543.6563,1302.375 546.1563,1302.375 Q546.8594,1302.375 547.5,1302.5313 Q548.1563,1302.6875 548.7188,1302.9844 L548.7188,1305.7031 Q548.0938,1305.125 547.5,1304.8594 Q546.9063,1304.5781 546.2813,1304.5781 Q544.9375,1304.5781 544.25,1305.6563 Q543.5625,1306.7188 543.5625,1308.8125 Q543.5625,1310.9063 544.25,1311.9844 Q544.9375,1313.0469 546.2813,1313.0469 Q546.9063,1313.0469 547.5,1312.7813 Q548.0938,1312.5 548.7188,1311.9219 L548.7188,1314.6406 Z "/><text fill="#000000" font-family="sans-serif" font-size="12" lengthAdjust="spacingAndGlyphs" textLength="78" x="566.25" y="1313.1543">RectWithPos</text><line style="stroke: #A80036; stroke-width: 1.5;" x1="428.5" x2="749.5" y1="1325" y2="1325"/><ellipse cx="438.5" cy="1336" fill="#84BE84" rx="3" ry="3" style="stroke: #038048; stroke-width: 1.0;"/><text fill="#000000" font-family="sans-serif" font-size="11" lengthAdjust="spacingAndGlyphs" textLength="297" x="447.5" y="1339.2104">operator==(const RectWithPos &amp; other) const : bool</text><line style="stroke: #A80036; stroke-width: 1.5;" x1="428.5" x2="749.5" y1="1345.8047" y2="1345.8047"/><ellipse cx="438.5" cy="1356.8047" fill="none" rx="3" ry="3" style="stroke: #038048; stroke-width: 1.0;"/><text fill="#000000" font-family="sans-serif" font-size="11" lengthAdjust="spacingAndGlyphs" textLength="54" x="447.5" y="1360.0151">pos : Pos</text><ellipse cx="438.5" cy="1369.6094" fill="none" rx="3" ry="3" style="stroke: #038048; stroke-width: 1.0;"/><text fill="#000000" font-family="sans-serif" font-size="11" lengthAdjust="spacingAndGlyphs" textLength="99" x="447.5" y="1372.8198">rect : Rectangle *</text><!--MD5=[b294e756c7ae6b24224610d2c54b5895]
class C_0000098590755926109064--><rect fill="#FEFECE" filter="url(#f3j1keqatnkpx)" height="153.6328" id="C_0000098590755926109064" style="stroke: #A80036; stroke-width: 1.5;" width="281" x="306.5" y="1062"/><ellipse cx="428.25" cy="1078" fill="#ADD1B2" rx="11" ry="11" style="stroke: #A80036; stroke-width: 1.0;"/><path d="M431.2188,1083.6406 Q430.6406,1083.9375 430,1084.0781 Q429.3594,1084.2344 428.6563,1084.2344 Q426.1563,1084.2344 424.8281,1082.5938 Q423.5156,1080.9375 423.5156,1077.8125 Q423.5156,1074.6875 424.8281,1073.0313 Q426.1563,1071.375 428.6563,1071.375 Q429.3594,1071.375 430,1071.5313 Q430.6563,1071.6875 431.2188,1071.9844 L431.2188,1074.7031 Q430.5938,1074.125 430,1073.8594 Q429.4063,1073.5781 428.7813,1073.5781 Q427.4375,1073.5781 426.75,1074.6563 Q426.0625,1075.7188 426.0625,1077.8125 Q426.0625,1079.9063 426.75,1080.9844 Q427.4375,1082.0469 428.7813,1082.0469 Q429.4063,1082.0469 430,1081.7813 Q430.5938,1081.5 431.2188,1080.9219 L431.2188,1083.6406 Z "/><text fill="#000000" font-family="sans-serif" font-size="12" lengthAdjust="spacingAndGlyphs" textLength="29" x="448.75" y="1082.1543">Step</text><line style="stroke: #A80036; stroke-width: 1.5;" x1="307.5" x2="586.5" y1="1094" y2="1094"/><ellipse cx="317.5" cy="1105" fill="#84BE84" rx="3" ry="3" style="stroke: #038048; stroke-width: 1.0;"/><text fill="#000000" font-family="sans-serif" font-size="11" lengthAdjust="spacingAndGlyphs" textLength="125" x="326.5" y="1108.2104">Step() = default : void</text><ellipse cx="317.5" cy="1117.8047" fill="#84BE84" rx="3" ry="3" style="stroke: #038048; stroke-width: 1.0;"/><text fill="#000000" font-family="sans-serif" font-size="11" lengthAdjust="spacingAndGlyphs" textLength="108" x="326.5" y="1121.0151">Step(size_t i) : void</text><line style="stroke: #A80036; stroke-width: 1.0; stroke-dasharray: 1.0,2.0;" x1="307.5" x2="586.5" y1="1127.6094" y2="1127.6094"/><ellipse cx="317.5" cy="1138.6094" fill="#84BE84" rx="3" ry="3" style="stroke: #038048; stroke-width: 1.0;"/><text fill="#000000" font-family="sans-serif" font-size="11" lengthAdjust="spacingAndGlyphs" textLength="255" x="326.5" y="1141.8198">operator==(const Step &amp; other) const : bool</text><line style="stroke: #A80036; stroke-width: 1.0; stroke-dasharray: 1.0,2.0;" x1="307.5" x2="586.5" y1="1148.4141" y2="1148.4141"/><ellipse cx="317.5" cy="1159.4141" fill="#84BE84" rx="3" ry="3" style="stroke: #038048; stroke-width: 1.0;"/><text fill="#000000" font-family="sans-serif" font-size="11" lengthAdjust="spacingAndGlyphs" textLength="117" x="326.5" y="1162.6245">width() const : size_t</text><line style="stroke: #A80036; stroke-width: 1.5;" x1="307.5" x2="586.5" y1="1169.2188" y2="1169.2188"/><ellipse cx="317.5" cy="1180.2188" fill="none" rx="3" ry="3" style="stroke: #038048; stroke-width: 1.0;"/><text fill="#000000" font-family="sans-serif" font-size="11" lengthAdjust="spacingAndGlyphs" textLength="54" x="326.5" y="1183.4292">id : size_t</text><ellipse cx="317.5" cy="1193.0234" fill="none" rx="3" ry="3" style="stroke: #038048; stroke-width: 1.0;"/><text fill="#000000" font-family="sans-serif" font-size="11" lengthAdjust="spacingAndGlyphs" textLength="104" x="326.5" y="1196.2339">max_width : size_t</text><ellipse cx="317.5" cy="1205.8281" fill="none" rx="3" ry="3" style="stroke: #038048; stroke-width: 1.0;"/><text fill="#000000" font-family="sans-serif" font-size="11" lengthAdjust="spacingAndGlyphs" textLength="219" x="326.5" y="1209.0386">rectangles : std::vector&lt;RectWithPos&gt;</text><!--MD5=[55bdabeb373ffa40e77ddb4ed9f85f25]
class C_0000093946869327873909--><rect fill="#FEFECE" filter="url(#f3j1keqatnkpx)" height="192.0469" id="C_0000093946869327873909" style="stroke: #A80036; stroke-width: 1.5;" width="429" x="369.5" y="793"/><ellipse cx="550.75" cy="809" fill="#ADD1B2" rx="11" ry="11" style="stroke: #A80036; stroke-width: 1.0;"/><path d="M553.7188,814.6406 Q553.1406,814.9375 552.5,815.0781 Q551.8594,815.2344 551.1563,815.2344 Q548.6563,815.2344 547.3281,813.5938 Q546.0156,811.9375 546.0156,808.8125 Q546.0156,805.6875 547.3281,804.0313 Q548.6563,802.375 551.1563,802.375 Q551.8594,802.375 552.5,802.5313 Q553.1563,802.6875 553.7188,802.9844 L553.7188,805.7031 Q553.0938,805.125 552.5,804.8594 Q551.9063,804.5781 551.2813,804.5781 Q549.9375,804.5781 549.25,805.6563 Q548.5625,806.7188 548.5625,808.8125 Q548.5625,810.9063 549.25,811.9844 Q549.9375,813.0469 551.2813,813.0469 Q551.9063,813.0469 552.5,812.7813 Q553.0938,812.5 553.7188,811.9219 L553.7188,814.6406 Z "/><text fill="#000000" font-family="sans-serif" font-size="12" lengthAdjust="spacingAndGlyphs" textLength="58" x="571.25" y="813.1543">Schedule</text><line style="stroke: #A80036; stroke-width: 1.5;" x1="370.5" x2="797.5" y1="825" y2="825"/><ellipse cx="380.5" cy="836" fill="#84BE84" rx="3" ry="3" style="stroke: #038048; stroke-width: 1.0;"/><text fill="#000000" font-family="sans-serif" font-size="11" lengthAdjust="spacingAndGlyphs" textLength="194" x="389.5" y="839.2104">Schedule(size_t num_steps) : void</text><line style="stroke: #A80036; stroke-width: 1.0; stroke-dasharray: 1.0,2.0;" x1="370.5" x2="797.5" y1="845.8047" y2="845.8047"/><ellipse cx="380.5" cy="856.8047" fill="#84BE84" rx="3" ry="3" style="stroke: #038048; stroke-width: 1.0;"/><text fill="#000000" font-family="sans-serif" font-size="11" lengthAdjust="spacingAndGlyphs" textLength="281" x="389.5" y="860.0151">operator==(const Schedule &amp; other) const : bool</text><line style="stroke: #A80036; stroke-width: 1.0; stroke-dasharray: 1.0,2.0;" x1="370.5" x2="797.5" y1="866.6094" y2="866.6094"/><ellipse cx="380.5" cy="877.6094" fill="#84BE84" rx="3" ry="3" style="stroke: #038048; stroke-width: 1.0;"/><text fill="#000000" font-family="sans-serif" font-size="11" lengthAdjust="spacingAndGlyphs" textLength="403" x="389.5" y="880.8198">addRectangle(size_t step_id, const RectWithPos &amp; rect_with_pos) : void</text><ellipse cx="380.5" cy="890.4141" fill="#84BE84" rx="3" ry="3" style="stroke: #038048; stroke-width: 1.0;"/><text fill="#000000" font-family="sans-serif" font-size="11" lengthAdjust="spacingAndGlyphs" textLength="194" x="389.5" y="893.6245">addStep(const Step &amp; step) : void</text><ellipse cx="380.5" cy="903.2188" fill="#84BE84" rx="3" ry="3" style="stroke: #038048; stroke-width: 1.0;"/><text fill="#000000" font-family="sans-serif" font-size="11" lengthAdjust="spacingAndGlyphs" textLength="260" x="389.5" y="906.4292">getSteps() const : const std::vector&lt;Step&gt; &amp;</text><ellipse cx="380.5" cy="916.0234" fill="#84BE84" rx="3" ry="3" style="stroke: #038048; stroke-width: 1.0;"/><text fill="#000000" font-family="sans-serif" font-size="11" lengthAdjust="spacingAndGlyphs" textLength="366" x="389.5" y="919.2339">hasIntersection(const RectWithPos &amp; rect_with_pos) const : bool</text><ellipse cx="380.5" cy="928.8281" fill="#84BE84" rx="3" ry="3" style="stroke: #038048; stroke-width: 1.0;"/><text fill="#000000" font-family="sans-serif" font-size="11" lengthAdjust="spacingAndGlyphs" text-decoration="underline" textLength="282" x="389.5" y="932.0386">intersect(RectWithPos lhs, RectWithPos rhs) : bool</text><ellipse cx="380.5" cy="941.6328" fill="#84BE84" rx="3" ry="3" style="stroke: #038048; stroke-width: 1.0;"/><text fill="#000000" font-family="sans-serif" font-size="11" lengthAdjust="spacingAndGlyphs" textLength="242" x="389.5" y="944.8433">outOfRangeSize(size_t width) const : size_t</text><ellipse cx="380.5" cy="954.4375" fill="#84BE84" rx="3" ry="3" style="stroke: #038048; stroke-width: 1.0;"/><text fill="#000000" font-family="sans-serif" font-size="11" lengthAdjust="spacingAndGlyphs" textLength="69" x="389.5" y="957.6479">print() : void</text><line style="stroke: #A80036; stroke-width: 1.5;" x1="370.5" x2="797.5" y1="964.2422" y2="964.2422"/><rect fill="none" height="6" style="stroke: #C82930; stroke-width: 1.0;" width="6" x="377.5" y="972.2422"/><text fill="#000000" font-family="sans-serif" font-size="11" lengthAdjust="spacingAndGlyphs" textLength="149" x="389.5" y="978.4526">steps : std::vector&lt;Step&gt;</text><!--MD5=[317a71db877e224f5494cad7cb829659]
class C_0000084282768001716009--><rect fill="#FEFECE" filter="url(#f3j1keqatnkpx)" height="86.4141" id="C_0000084282768001716009" style="stroke: #A80036; stroke-width: 1.5;" width="328" x="6" y="846"/><ellipse cx="123.75" cy="862" fill="#ADD1B2" rx="11" ry="11" style="stroke: #A80036; stroke-width: 1.0;"/><path d="M126.7188,867.6406 Q126.1406,867.9375 125.5,868.0781 Q124.8594,868.2344 124.1563,868.2344 Q121.6563,868.2344 120.3281,866.5938 Q119.0156,864.9375 119.0156,861.8125 Q119.0156,858.6875 120.3281,857.0313 Q121.6563,855.375 124.1563,855.375 Q124.8594,855.375 125.5,855.5313 Q126.1563,855.6875 126.7188,855.9844 L126.7188,858.7031 Q126.0938,858.125 125.5,857.8594 Q124.9063,857.5781 124.2813,857.5781 Q122.9375,857.5781 122.25,858.6563 Q121.5625,859.7188 121.5625,861.8125 Q121.5625,863.9063 122.25,864.9844 Q122.9375,866.0469 124.2813,866.0469 Q124.9063,866.0469 125.5,865.7813 Q126.0938,865.5 126.7188,864.9219 L126.7188,867.6406 Z "/><text fill="#000000" font-family="sans-serif" font-size="12" lengthAdjust="spacingAndGlyphs" textLength="84" x="144.25" y="866.1543">RectWithStep</text><line style="stroke: #A80036; stroke-width: 1.5;" x1="7" x2="333" y1="878" y2="878"/><ellipse cx="17" cy="889" fill="#84BE84" rx="3" ry="3" style="stroke: #038048; stroke-width: 1.0;"/><text fill="#000000" font-family="sans-serif" font-size="11" lengthAdjust="spacingAndGlyphs" textLength="302" x="26" y="892.2104">operator==(const RectWithStep &amp; other) const : bool</text><line style="stroke: #A80036; stroke-width: 1.5;" x1="7" x2="333" y1="898.8047" y2="898.8047"/><ellipse cx="17" cy="909.8047" fill="none" rx="3" ry="3" style="stroke: #038048; stroke-width: 1.0;"/><text fill="#000000" font-family="sans-serif" font-size="11" lengthAdjust="spacingAndGlyphs" textLength="158" x="26" y="913.0151">rect_with_pos : RectWithPos</text><ellipse cx="17" cy="922.6094" fill="none" rx="3" ry="3" style="stroke: #038048; stroke-width: 1.0;"/><text fill="#000000" font-family="sans-serif" font-size="11" lengthAdjust="spacingAndGlyphs" textLength="108" x="26" y="925.8198">step : const Step *</text><!--MD5=[bdac4d736784371b55599720ac1a5aa0]
class C_0001366491833892222367--><rect fill="#FEFECE" filter="url(#f3j1keqatnkpx)" height="99.2188" id="C_0001366491833892222367" style="stroke: #A80036; stroke-width: 1.5;" width="287" x="223.5" y="593.5"/><ellipse cx="346.25" cy="609.5" fill="#ADD1B2" rx="11" ry="11" style="stroke: #A80036; stroke-width: 1.0;"/><path d="M349.2188,615.1406 Q348.6406,615.4375 348,615.5781 Q347.3594,615.7344 346.6563,615.7344 Q344.1563,615.7344 342.8281,614.0938 Q341.5156,612.4375 341.5156,609.3125 Q341.5156,606.1875 342.8281,604.5313 Q344.1563,602.875 346.6563,602.875 Q347.3594,602.875 348,603.0313 Q348.6563,603.1875 349.2188,603.4844 L349.2188,606.2031 Q348.5938,605.625 348,605.3594 Q347.4063,605.0781 346.7813,605.0781 Q345.4375,605.0781 344.75,606.1563 Q344.0625,607.2188 344.0625,609.3125 Q344.0625,611.4063 344.75,612.4844 Q345.4375,613.5469 346.7813,613.5469 Q347.4063,613.5469 348,613.2813 Q348.5938,613 349.2188,612.4219 L349.2188,615.1406 Z "/><text fill="#000000" font-family="sans-serif" font-size="12" lengthAdjust="spacingAndGlyphs" textLength="33" x="366.75" y="613.6543">Gene</text><line style="stroke: #A80036; stroke-width: 1.5;" x1="224.5" x2="509.5" y1="625.5" y2="625.5"/><ellipse cx="234.5" cy="636.5" fill="#84BE84" rx="3" ry="3" style="stroke: #038048; stroke-width: 1.0;"/><text fill="#000000" font-family="sans-serif" font-size="11" lengthAdjust="spacingAndGlyphs" textLength="129" x="243.5" y="639.7104">Gene() = default : void</text><line style="stroke: #A80036; stroke-width: 1.5;" x1="224.5" x2="509.5" y1="646.3047" y2="646.3047"/><ellipse cx="234.5" cy="657.3047" fill="none" rx="3" ry="3" style="stroke: #038048; stroke-width: 1.0;"/><text fill="#000000" font-family="sans-serif" font-size="11" lengthAdjust="spacingAndGlyphs" textLength="83" x="243.5" y="660.5151">fitness : size_t</text><ellipse cx="234.5" cy="670.1094" fill="none" rx="3" ry="3" style="stroke: #038048; stroke-width: 1.0;"/><text fill="#000000" font-family="sans-serif" font-size="11" lengthAdjust="spacingAndGlyphs" textLength="103" x="243.5" y="673.3198">likelihood : double</text><ellipse cx="234.5" cy="682.9141" fill="none" rx="3" ry="3" style="stroke: #038048; stroke-width: 1.0;"/><text fill="#000000" font-family="sans-serif" font-size="11" lengthAdjust="spacingAndGlyphs" textLength="261" x="243.5" y="686.1245">rectangles_order : std::vector&lt;RectWithStep&gt;</text><!--MD5=[c77ee0483dfdbb513ac3cfaf3a0a902a]
class C_0002071076267832123339--><rect fill="#FEFECE" filter="url(#f3j1keqatnkpx)" height="337.7031" id="C_0002071076267832123339" style="stroke: #A80036; stroke-width: 1.5;" width="661" x="35.5" y="155"/><ellipse cx="353.25" cy="171" fill="#ADD1B2" rx="11" ry="11" style="stroke: #A80036; stroke-width: 1.0;"/><path d="M356.2188,176.6406 Q355.6406,176.9375 355,177.0781 Q354.3594,177.2344 353.6563,177.2344 Q351.1563,177.2344 349.8281,175.5938 Q348.5156,173.9375 348.5156,170.8125 Q348.5156,167.6875 349.8281,166.0313 Q351.1563,164.375 353.6563,164.375 Q354.3594,164.375 355,164.5313 Q355.6563,164.6875 356.2188,164.9844 L356.2188,167.7031 Q355.5938,167.125 355,166.8594 Q354.4063,166.5781 353.7813,166.5781 Q352.4375,166.5781 351.75,167.6563 Q351.0625,168.7188 351.0625,170.8125 Q351.0625,172.9063 351.75,173.9844 Q352.4375,175.0469 353.7813,175.0469 Q354.4063,175.0469 355,174.7813 Q355.5938,174.5 356.2188,173.9219 L356.2188,176.6406 Z "/><text fill="#000000" font-family="sans-serif" font-size="12" lengthAdjust="spacingAndGlyphs" textLength="17" x="373.75" y="175.1543">GA</text><line style="stroke: #A80036; stroke-width: 1.5;" x1="36.5" x2="695.5" y1="187" y2="187"/><ellipse cx="46.5" cy="198" fill="#84BE84" rx="3" ry="3" style="stroke: #038048; stroke-width: 1.0;"/><text fill="#000000" font-family="sans-serif" font-size="11" lengthAdjust="spacingAndGlyphs" textLength="348" x="55.5" y="201.2104">GA(size_t width, size_t max_iterations, size_t max_pop) : void</text><line style="stroke: #A80036; stroke-width: 1.0; stroke-dasharray: 1.0,2.0;" x1="36.5" x2="695.5" y1="207.8047" y2="207.8047"/><rect fill="#F24D5C" height="6" style="stroke: #C82930; stroke-width: 1.0;" width="6" x="43.5" y="215.8047"/><text fill="#000000" font-family="sans-serif" font-size="11" lengthAdjust="spacingAndGlyphs" textLength="159" x="55.5" y="222.0151">CalculateFitnesses() : size_t</text><rect fill="#F24D5C" height="6" style="stroke: #C82930; stroke-width: 1.0;" width="6" x="43.5" y="228.6094"/><text fill="#000000" font-family="sans-serif" font-size="11" lengthAdjust="spacingAndGlyphs" textLength="158" x="55.5" y="234.8198">CalculateLikelihoods() : void</text><rect fill="#F24D5C" height="6" style="stroke: #C82930; stroke-width: 1.0;" width="6" x="43.5" y="241.4141"/><text fill="#000000" font-family="sans-serif" font-size="11" lengthAdjust="spacingAndGlyphs" textLength="116" x="55.5" y="247.6245">CreateChilds() : void</text><rect fill="#F24D5C" height="6" style="stroke: #C82930; stroke-width: 1.0;" width="6" x="43.5" y="254.2188"/><text fill="#000000" font-family="sans-serif" font-size="11" lengthAdjust="spacingAndGlyphs" textLength="164" x="55.5" y="260.4292">CreateNewPopulation() : void</text><rect fill="#F24D5C" height="6" style="stroke: #C82930; stroke-width: 1.0;" width="6" x="43.5" y="267.0234"/><text fill="#000000" font-family="sans-serif" font-size="11" lengthAdjust="spacingAndGlyphs" textLength="356" x="55.5" y="273.2339">Crossover(size_t parent_id_1, size_t parent_id_2) const : Gene</text><rect fill="#F24D5C" height="6" style="stroke: #C82930; stroke-width: 1.0;" width="6" x="43.5" y="279.8281"/><text fill="#000000" font-family="sans-serif" font-size="11" lengthAdjust="spacingAndGlyphs" textLength="284" x="55.5" y="286.0386">Fitness(const Schedule &amp; schedule) const : size_t</text><rect fill="#F24D5C" height="6" style="stroke: #C82930; stroke-width: 1.0;" width="6" x="43.5" y="292.6328"/><text fill="#000000" font-family="sans-serif" font-size="11" lengthAdjust="spacingAndGlyphs" textLength="195" x="55.5" y="298.8433">GetIndex(double val) const : size_t</text><rect fill="#F24D5C" height="6" style="stroke: #C82930; stroke-width: 1.0;" width="6" x="43.5" y="305.4375"/><text fill="#000000" font-family="sans-serif" font-size="11" lengthAdjust="spacingAndGlyphs" textLength="132" x="55.5" y="311.6479">MultInv() const : double</text><rect fill="#F24D5C" height="6" style="stroke: #C82930; stroke-width: 1.0;" width="6" x="43.5" y="318.2422"/><text fill="#000000" font-family="sans-serif" font-size="11" lengthAdjust="spacingAndGlyphs" textLength="91" x="55.5" y="324.4526">Mutation() : void</text><ellipse cx="46.5" cy="334.0469" fill="#84BE84" rx="3" ry="3" style="stroke: #038048; stroke-width: 1.0;"/><text fill="#000000" font-family="sans-serif" font-size="11" lengthAdjust="spacingAndGlyphs" textLength="115" x="55.5" y="337.2573">PrintStatistic() : void</text><ellipse cx="46.5" cy="346.8516" fill="#84BE84" rx="3" ry="3" style="stroke: #038048; stroke-width: 1.0;"/><text fill="#000000" font-family="sans-serif" font-size="11" lengthAdjust="spacingAndGlyphs" textLength="610" x="55.5" y="350.062">Solve(const Schedule &amp; schedule, size_t expected_fit, unsigned int random_seed) : std::vector&lt;Schedule&gt;</text><rect fill="#F24D5C" height="6" style="stroke: #C82930; stroke-width: 1.0;" width="6" x="43.5" y="356.6563"/><text fill="#000000" font-family="sans-serif" font-size="11" lengthAdjust="spacingAndGlyphs" textLength="635" x="55.5" y="362.8667">SwapRectanglesOrder(const std::vector&lt;RectWithStep&gt; &amp; rectangles_order) const : std::vector&lt;RectWithStep&gt;</text><rect fill="#F24D5C" height="6" style="stroke: #C82930; stroke-width: 1.0;" width="6" x="43.5" y="369.4609"/><text fill="#000000" font-family="sans-serif" font-size="11" lengthAdjust="spacingAndGlyphs" textLength="476" x="55.5" y="375.6714">getRectanglesOrder(const Schedule &amp; schedule) const : std::vector&lt;RectWithStep&gt;</text><rect fill="#F24D5C" height="6" style="stroke: #C82930; stroke-width: 1.0;" width="6" x="43.5" y="382.2656"/><text fill="#000000" font-family="sans-serif" font-size="11" lengthAdjust="spacingAndGlyphs" textLength="492" x="55.5" y="388.4761">makeSchedule(const std::vector&lt;RectWithStep&gt; &amp; rectangles_order) const : Schedule</text><line style="stroke: #A80036; stroke-width: 1.5;" x1="36.5" x2="695.5" y1="395.0703" y2="395.0703"/><rect fill="none" height="6" style="stroke: #C82930; stroke-width: 1.0;" width="6" x="43.5" y="403.0703"/><text fill="#000000" font-family="sans-serif" font-size="11" lengthAdjust="spacingAndGlyphs" textLength="160" x="55.5" y="409.2808">childs_ : std::vector&lt;Gene&gt;</text><rect fill="none" height="6" style="stroke: #C82930; stroke-width: 1.0;" width="6" x="43.5" y="415.875"/><text fill="#000000" font-family="sans-serif" font-size="11" lengthAdjust="spacingAndGlyphs" textLength="294" x="55.5" y="422.0854">iterations_statistic : std::vector&lt;iteration_statistic&gt;</text><rect fill="none" height="6" style="stroke: #C82930; stroke-width: 1.0;" width="6" x="43.5" y="428.6797"/><text fill="#000000" font-family="sans-serif" font-size="11" lengthAdjust="spacingAndGlyphs" textLength="134" x="55.5" y="434.8901">max_iterations_ : size_t</text><rect fill="none" height="6" style="stroke: #C82930; stroke-width: 1.0;" width="6" x="43.5" y="441.4844"/><text fill="#000000" font-family="sans-serif" font-size="11" lengthAdjust="spacingAndGlyphs" textLength="139" x="55.5" y="447.6948">max_population_ : size_t</text><rect fill="none" height="6" style="stroke: #C82930; stroke-width: 1.0;" width="6" x="43.5" y="454.2891"/><text fill="#000000" font-family="sans-serif" font-size="11" lengthAdjust="spacingAndGlyphs" textLength="113" x="55.5" y="460.4995">num_steps_ : size_t</text><rect fill="none" height="6" style="stroke: #C82930; stroke-width: 1.0;" width="6" x="43.5" y="467.0938"/><text fill="#000000" font-family="sans-serif" font-size="11" lengthAdjust="spacingAndGlyphs" textLength="186" x="55.5" y="473.3042">population_ : std::vector&lt;Gene&gt;</text><rect fill="none" height="6" style="stroke: #C82930; stroke-width: 1.0;" width="6" x="43.5" y="479.8984"/><text fill="#000000" font-family="sans-serif" font-size="11" lengthAdjust="spacingAndGlyphs" textLength="80" x="55.5" y="486.1089">width_ : size_t</text><!--MD5=[34fc3502ff8a93ddc0262e3752c326e9]
class C_0000207584391244251542--><rect fill="#FEFECE" filter="url(#f3j1keqatnkpx)" height="86.4141" id="C_0000207584391244251542" style="stroke: #A80036; stroke-width: 1.5;" width="166" x="283" y="8"/><ellipse cx="298" cy="24" fill="#ADD1B2" rx="11" ry="11" style="stroke: #A80036; stroke-width: 1.0;"/><path d="M300.9688,29.6406 Q300.3906,29.9375 299.75,30.0781 Q299.1094,30.2344 298.4063,30.2344 Q295.9063,30.2344 294.5781,28.5938 Q293.2656,26.9375 293.2656,23.8125 Q293.2656,20.6875 294.5781,19.0313 Q295.9063,17.375 298.4063,17.375 Q299.1094,17.375 299.75,17.5313 Q300.4063,17.6875 300.9688,17.9844 L300.9688,20.7031 Q300.3438,20.125 299.75,19.8594 Q299.1563,19.5781 298.5313,19.5781 Q297.1875,19.5781 296.5,20.6563 Q295.8125,21.7188 295.8125,23.8125 Q295.8125,25.9063 296.5,26.9844 Q297.1875,28.0469 298.5313,28.0469 Q299.1563,28.0469 299.75,27.7813 Q300.3438,27.5 300.9688,26.9219 L300.9688,29.6406 Z "/><text fill="#000000" font-family="sans-serif" font-size="12" lengthAdjust="spacingAndGlyphs" textLength="134" x="312" y="28.1543">GA::iteration_statistic</text><line style="stroke: #A80036; stroke-width: 1.5;" x1="284" x2="448" y1="40" y2="40"/><line style="stroke: #A80036; stroke-width: 1.5;" x1="284" x2="448" y1="48" y2="48"/><ellipse cx="294" cy="59" fill="none" rx="3" ry="3" style="stroke: #038048; stroke-width: 1.0;"/><text fill="#000000" font-family="sans-serif" font-size="11" lengthAdjust="spacingAndGlyphs" textLength="64" x="303" y="62.2104">avg : size_t</text><ellipse cx="294" cy="71.8047" fill="none" rx="3" ry="3" style="stroke: #038048; stroke-width: 1.0;"/><text fill="#000000" font-family="sans-serif" font-size="11" lengthAdjust="spacingAndGlyphs" textLength="65" x="303" y="75.0151">min : size_t</text><ellipse cx="294" cy="84.6094" fill="none" rx="3" ry="3" style="stroke: #038048; stroke-width: 1.0;"/><text fill="#000000" font-family="sans-serif" font-size="11" lengthAdjust="spacingAndGlyphs" textLength="66" x="303" y="87.8198">size : size_t</text><!--MD5=[a7a42ed3921c68a2532507cfe46739e1]
class C_0002250562613440808018--><rect fill="#FEFECE" filter="url(#f3j1keqatnkpx)" height="145.6328" id="C_0002250562613440808018" style="stroke: #A80036; stroke-width: 1.5;" width="379" x="644.5" y="570"/><ellipse cx="800.75" cy="586" fill="#ADD1B2" rx="11" ry="11" style="stroke: #A80036; stroke-width: 1.0;"/><path d="M803.7188,591.6406 Q803.1406,591.9375 802.5,592.0781 Q801.8594,592.2344 801.1563,592.2344 Q798.6563,592.2344 797.3281,590.5938 Q796.0156,588.9375 796.0156,585.8125 Q796.0156,582.6875 797.3281,581.0313 Q798.6563,579.375 801.1563,579.375 Q801.8594,579.375 802.5,579.5313 Q803.1563,579.6875 803.7188,579.9844 L803.7188,582.7031 Q803.0938,582.125 802.5,581.8594 Q801.9063,581.5781 801.2813,581.5781 Q799.9375,581.5781 799.25,582.6563 Q798.5625,583.7188 798.5625,585.8125 Q798.5625,587.9063 799.25,588.9844 Q799.9375,590.0469 801.2813,590.0469 Q801.9063,590.0469 802.5,589.7813 Q803.0938,589.5 803.7188,588.9219 L803.7188,591.6406 Z "/><text fill="#000000" font-family="sans-serif" font-size="12" lengthAdjust="spacingAndGlyphs" textLength="58" x="821.25" y="590.1543">Renderer</text><line style="stroke: #A80036; stroke-width: 1.5;" x1="645.5" x2="1022.5" y1="602" y2="602"/><ellipse cx="655.5" cy="613" fill="#84BE84" rx="3" ry="3" style="stroke: #038048; stroke-width: 1.0;"/><text fill="#000000" font-family="sans-serif" font-size="11" lengthAdjust="spacingAndGlyphs" textLength="240" x="664.5" y="616.2104">Renderer(size_t height, size_t width) : void</text><line style="stroke: #A80036; stroke-width: 1.0; stroke-dasharray: 1.0,2.0;" x1="645.5" x2="1022.5" y1="622.8047" y2="622.8047"/><ellipse cx="655.5" cy="633.8047" fill="#84BE84" rx="3" ry="3" style="stroke: #038048; stroke-width: 1.0;"/><text fill="#000000" font-family="sans-serif" font-size="11" lengthAdjust="spacingAndGlyphs" textLength="353" x="664.5" y="637.0151">AddRectangle(const RectWithPos &amp; rect_with_pos) const : void</text><rect fill="#F24D5C" height="6" style="stroke: #C82930; stroke-width: 1.0;" width="6" x="652.5" y="643.6094"/><text fill="#000000" font-family="sans-serif" font-size="11" lengthAdjust="spacingAndGlyphs" textLength="108" x="664.5" y="649.8198">Clear() const : void</text><ellipse cx="655.5" cy="659.4141" fill="#84BE84" rx="3" ry="3" style="stroke: #038048; stroke-width: 1.0;"/><text fill="#000000" font-family="sans-serif" font-size="11" lengthAdjust="spacingAndGlyphs" textLength="263" x="664.5" y="662.6245">Draw(const Schedule &amp; schedule) const : void</text><line style="stroke: #A80036; stroke-width: 1.5;" x1="645.5" x2="1022.5" y1="669.2188" y2="669.2188"/><rect fill="none" height="6" style="stroke: #C82930; stroke-width: 1.0;" width="6" x="652.5" y="677.2188"/><text fill="#000000" font-family="sans-serif" font-size="11" lengthAdjust="spacingAndGlyphs" textLength="213" x="664.5" y="683.4292">buf : std::vector&lt;std::vector&lt;char&gt;&gt;</text><rect fill="none" height="6" style="stroke: #C82930; stroke-width: 1.0;" width="6" x="652.5" y="690.0234"/><text fill="#000000" font-family="sans-serif" font-size="11" lengthAdjust="spacingAndGlyphs" textLength="85" x="664.5" y="696.2339">height_ : size_t</text><rect fill="none" height="6" style="stroke: #C82930; stroke-width: 1.0;" width="6" x="652.5" y="702.8281"/><text fill="#000000" font-family="sans-serif" font-size="11" lengthAdjust="spacingAndGlyphs" textLength="80" x="664.5" y="709.0386">width_ : size_t</text><!--MD5=[6c3abd81e6c769c0a33162b14a2dbbfb]
link C_0000236531466166773997 to C_0000373589578875245130--><path d="M550.39,1379.27 C530.22,1401.35 505.36,1428.57 483.96,1451.99 " fill="none" id="C_0000236531466166773997-&gt;C_0000373589578875245130" style="stroke: #A80036; stroke-width: 1.0;"/><polygon fill="#A80036" points="480.56,1455.71,489.5784,1451.7516,483.9276,1452.0142,483.6651,1446.3634,480.56,1455.71" style="stroke: #A80036; stroke-width: 1.0;"/><ellipse cx="528" cy="1418.0664" fill="none" rx="3" ry="3" style="stroke: #038048; stroke-width: 1.0;"/><text fill="#000000" font-family="sans-serif" font-size="13" lengthAdjust="spacingAndGlyphs" textLength="25" x="535" y="1422.0669">rect</text><!--MD5=[fa9d7846c155132dbc8b09d701879524]
reverse link C_0000236531466166773997 to C_0001610257482604871553--><path d="M636.88,1389.08 C658.51,1412.6 683.73,1440.03 704.15,1462.25 " fill="none" id="C_0000236531466166773997&lt;-C_0001610257482604871553" style="stroke: #A80036; stroke-width: 1.0;"/><polygon fill="#FFFFFF" points="627.86,1379.27,628.9763,1386.3942,635.9818,1388.1038,634.8655,1380.9796,627.86,1379.27" style="stroke: #A80036; stroke-width: 1.0;"/><ellipse cx="677" cy="1418.0664" fill="none" rx="3" ry="3" style="stroke: #038048; stroke-width: 1.0;"/><text fill="#000000" font-family="sans-serif" font-size="13" lengthAdjust="spacingAndGlyphs" textLength="23" x="684" y="1422.0669">pos</text><!--MD5=[5f55a1c34564e8f6968c017ae3f7f638]
reverse link C_0000098590755926109064 to C_0000236531466166773997--><path d="M507.78,1226.77 C516.51,1238.99 525.43,1251.35 534,1263 C541.17,1272.76 549.01,1283.16 556.46,1292.94 " fill="none" id="C_0000098590755926109064&lt;-C_0000236531466166773997" style="stroke: #A80036; stroke-width: 1.0;"/><polygon fill="#FFFFFF" points="500.17,1216.1,500.3942,1223.3076,507.1336,1225.8728,506.9094,1218.6652,500.17,1216.1" style="stroke: #A80036; stroke-width: 1.0;"/><ellipse cx="540" cy="1255.0664" fill="none" rx="3" ry="3" style="stroke: #038048; stroke-width: 1.0;"/><text fill="#000000" font-family="sans-serif" font-size="13" lengthAdjust="spacingAndGlyphs" textLength="67" x="547" y="1259.0669">rectangles</text><!--MD5=[d58d40557cfc048551a55682c43b42ac]
link C_0000093946869327873909 to C_0000236531466166773997--><path d="M596.51,985.36 C605.14,1056.93 615.63,1157.41 619,1246 C619.29,1253.55 620.48,1255.59 619,1263 C617.35,1271.25 614.74,1279.73 611.72,1287.85 " fill="none" id="C_0000093946869327873909-&gt;C_0000236531466166773997" style="stroke: #A80036; stroke-width: 1.0; stroke-dasharray: 7.0,7.0;"/><polygon fill="#A80036" points="609.8,1292.85,616.757,1285.8786,611.5901,1288.1814,609.2873,1283.0145,609.8,1292.85" style="stroke: #A80036; stroke-width: 1.0;"/><!--MD5=[2cb5d2d954c4e29179df2f26f72dd8e3]
reverse link C_0000093946869327873909 to C_0000098590755926109064--><path d="M525.12,996.59 C512.98,1018.57 500.42,1041.29 489.02,1061.93 " fill="none" id="C_0000093946869327873909&lt;-C_0000098590755926109064" style="stroke: #A80036; stroke-width: 1.0;"/><polygon fill="#FFFFFF" points="531.42,985.17,525.0166,988.4861,525.6147,995.6723,532.0181,992.3563,531.42,985.17" style="stroke: #A80036; stroke-width: 1.0;"/><rect fill="none" height="6" style="stroke: #C82930; stroke-width: 1.0;" width="6" x="515" y="1021.0664"/><text fill="#000000" font-family="sans-serif" font-size="13" lengthAdjust="spacingAndGlyphs" textLength="35" x="525" y="1028.0669">steps</text><!--MD5=[27a6c7a9537a22a21d4b4df02fc7ac49]
reverse link C_0000084282768001716009 to C_0000236531466166773997--><path d="M155.54,945.06 C140.52,1015.77 126.84,1138.6 188,1216 C218.62,1254.74 329.88,1285.91 427.45,1306.61 " fill="none" id="C_0000084282768001716009&lt;-C_0000236531466166773997" style="stroke: #A80036; stroke-width: 1.0;"/><polygon fill="#FFFFFF" points="158.45,932.06,153.2348,937.0401,155.8259,943.7696,161.0411,938.7895,158.45,932.06" style="stroke: #A80036; stroke-width: 1.0;"/><ellipse cx="194" cy="1139.5664" fill="none" rx="3" ry="3" style="stroke: #038048; stroke-width: 1.0;"/><text fill="#000000" font-family="sans-serif" font-size="13" lengthAdjust="spacingAndGlyphs" textLength="87" x="201" y="1143.5669">rect_with_pos</text><!--MD5=[3fc0871a6f0d266c68fe53594aeb6959]
link C_0000084282768001716009 to C_0000098590755926109064--><path d="M216.99,932.07 C255.5,966.55 311.09,1016.32 357.98,1058.3 " fill="none" id="C_0000084282768001716009-&gt;C_0000098590755926109064" style="stroke: #A80036; stroke-width: 1.0;"/><polygon fill="#A80036" points="361.91,1061.82,357.8599,1052.8424,358.1801,1058.4902,352.5323,1058.8103,361.91,1061.82" style="stroke: #A80036; stroke-width: 1.0;"/><ellipse cx="332" cy="1024.0664" fill="none" rx="3" ry="3" style="stroke: #038048; stroke-width: 1.0;"/><text fill="#000000" font-family="sans-serif" font-size="13" lengthAdjust="spacingAndGlyphs" textLength="28" x="339" y="1028.0669">step</text><!--MD5=[23bad5fec4412183791e7704c4d40703]
reverse link C_0001366491833892222367 to C_0000084282768001716009--><path d="M319.29,703.09 C283.69,747.19 235.89,806.4 204.07,845.81 " fill="none" id="C_0001366491833892222367&lt;-C_0000084282768001716009" style="stroke: #A80036; stroke-width: 1.0;"/><polygon fill="#FFFFFF" points="327.61,692.79,320.7298,694.9493,320.0767,702.1307,326.9569,699.9715,327.61,692.79" style="stroke: #A80036; stroke-width: 1.0;"/><ellipse cx="287" cy="755.0664" fill="none" rx="3" ry="3" style="stroke: #038048; stroke-width: 1.0;"/><text fill="#000000" font-family="sans-serif" font-size="13" lengthAdjust="spacingAndGlyphs" textLength="108" x="294" y="759.0669">rectangles_order</text><!--MD5=[8e26b3c8ba35dd0831e019e300db62ea]
link C_0002071076267832123339 to C_0000093946869327873909--><path d="M489.78,493.09 C504.34,518.02 517.66,544.07 528,570 C555.76,639.64 569.8,723.31 576.88,787.34 " fill="none" id="C_0002071076267832123339-&gt;C_0000093946869327873909" style="stroke: #A80036; stroke-width: 1.0; stroke-dasharray: 7.0,7.0;"/><polygon fill="#A80036" points="577.46,792.69,580.486,783.3175,576.9314,787.718,572.5309,784.1633,577.46,792.69" style="stroke: #A80036; stroke-width: 1.0;"/><!--MD5=[9776871a17b61f426ca12d62c23cd548]
link C_0002071076267832123339 to C_0000084282768001716009--><path d="M241.91,493.34 C227.9,518.13 215.34,544.07 206,570 C172.95,661.78 168.3,777.23 168.64,840.73 " fill="none" id="C_0002071076267832123339-&gt;C_0000084282768001716009" style="stroke: #A80036; stroke-width: 1.0; stroke-dasharray: 7.0,7.0;"/><polygon fill="#A80036" points="168.68,845.96,172.6027,836.926,168.6371,840.9602,164.603,836.9946,168.68,845.96" style="stroke: #A80036; stroke-width: 1.0;"/><!--MD5=[e23dd5717ed740de85040bcbb02757aa]
reverse link C_0002071076267832123339 to C_0001366491833892222367--><path d="M376.77,506.48 C376.72,517.82 376.48,529.07 376,540 C375.23,557.4 373.74,576.43 372.18,593.29 " fill="none" id="C_0002071076267832123339&lt;-C_0001366491833892222367" style="stroke: #A80036; stroke-width: 1.0;"/><polygon fill="#FFFFFF" points="376.74,493.13,372.7532,499.1388,376.7664,505.13,380.7532,499.1212,376.74,493.13" style="stroke: #A80036; stroke-width: 1.0;"/><rect fill="none" height="6" style="stroke: #C82930; stroke-width: 1.0;" width="6" x="380" y="529.0664"/><text fill="#000000" font-family="sans-serif" font-size="13" lengthAdjust="spacingAndGlyphs" textLength="74" x="390" y="536.0669">population_</text><!--MD5=[e23dd5717ed740de85040bcbb02757aa]
reverse link C_0002071076267832123339 to C_0001366491833892222367--><path d="M306.4,506.48 C306.75,517.83 308.2,529.07 311,540 C315.72,558.39 324.52,577.03 333.77,593.26 " fill="none" id="C_0002071076267832123339&lt;-C_0001366491833892222367-1" style="stroke: #A80036; stroke-width: 1.0;"/><polygon fill="#FFFFFF" points="306.47,493.14,302.4371,499.1179,306.4041,505.1398,310.437,499.1619,306.47,493.14" style="stroke: #A80036; stroke-width: 1.0;"/><rect fill="none" height="6" style="stroke: #C82930; stroke-width: 1.0;" width="6" x="314" y="529.0664"/><text fill="#000000" font-family="sans-serif" font-size="13" lengthAdjust="spacingAndGlyphs" textLength="43" x="324" y="536.0669">childs_</text><!--MD5=[49bab68ee4fdbd9caaf6fcfe7c188a0c]
link C_0000207584391244251542 to C_0002071076267832123339--><path d="M366,94.05 C366,107.38 366,123.08 366,139.89 " fill="none" id="C_0000207584391244251542-&gt;C_0002071076267832123339" style="stroke: #A80036; stroke-width: 1.0;"/><ellipse cx="366" cy="146.93" fill="#FFFFFF" rx="8" ry="8" style="stroke: #A80036; stroke-width: 1.0;"/><line style="stroke: #A80036; stroke-width: 1.0;" x1="366" x2="366" y1="138.93" y2="154.93"/><line style="stroke: #A80036; stroke-width: 1.0;" x1="374" x2="358" y1="146.93" y2="146.93"/><!--MD5=[5d21e55c5876a339c756a3d5e572e854]
link C_0002250562613440808018 to C_0000236531466166773997--><path d="M840.31,716.32 C844.1,786.61 843.75,895.54 816,985 C778.36,1106.33 685.74,1225.7 631.14,1288.84 " fill="none" id="C_0002250562613440808018-&gt;C_0000236531466166773997" style="stroke: #A80036; stroke-width: 1.0; stroke-dasharray: 7.0,7.0;"/><polygon fill="#A80036" points="627.6,1292.92,636.5189,1288.7424,630.8763,1289.143,630.4757,1283.5003,627.6,1292.92" style="stroke: #A80036; stroke-width: 1.0;"/><!--MD5=[97cb88075005042c727b6c229bf3081f]
link C_0002250562613440808018 to C_0000093946869327873909--><path d="M760.01,716.22 C736.54,739.12 710.18,764.85 685.14,789.29 " fill="none" id="C_0002250562613440808018-&gt;C_0000093946869327873909" style="stroke: #A80036; stroke-width: 1.0; stroke-dasharray: 7.0,7.0;"/><polygon fill="#A80036" points="681.46,792.88,690.6876,789.4375,685.0311,789.3804,685.0882,783.7238,681.46,792.88" style="stroke: #A80036; stroke-width: 1.0;"/><!--MD5=[64d122459dfd6ef9175051ca201c388a]
@startuml
class "Rectangle" as C_0000373589578875245130
class C_0000373589578875245130 {
+Rectangle(size_t i, size_t h, size_t w) : void
__
+height : size_t
+id : size_t
+width : size_t
}
class "Pos" as C_0001610257482604871553
class C_0001610257482604871553 {
+operator==(const Pos & other) const : bool
__
+x : size_t
+y : size_t
}
class "RectWithPos" as C_0000236531466166773997
class C_0000236531466166773997 {
+operator==(const RectWithPos & other) const : bool
__
+pos : Pos
+rect : Rectangle *
}
class "Step" as C_0000098590755926109064
class C_0000098590755926109064 {
+Step() = default : void
+Step(size_t i) : void
..
+operator==(const Step & other) const : bool
..
+width() const : size_t
__
+id : size_t
+max_width : size_t
+rectangles : std::vector<RectWithPos>
}
class "Schedule" as C_0000093946869327873909
class C_0000093946869327873909 {
+Schedule(size_t num_steps) : void
..
+operator==(const Schedule & other) const : bool
..
+addRectangle(size_t step_id, const RectWithPos & rect_with_pos) : void
+addStep(const Step & step) : void
+getSteps() const : const std::vector<Step> &
+hasIntersection(const RectWithPos & rect_with_pos) const : bool
{static} +intersect(RectWithPos lhs, RectWithPos rhs) : bool
+outOfRangeSize(size_t width) const : size_t
+print() : void
__
-steps : std::vector<Step>
}
class "RectWithStep" as C_0000084282768001716009
class C_0000084282768001716009 {
+operator==(const RectWithStep & other) const : bool
__
+rect_with_pos : RectWithPos
+step : const Step *
}
class "Gene" as C_0001366491833892222367
class C_0001366491833892222367 {
+Gene() = default : void
__
+fitness : size_t
+likelihood : double
+rectangles_order : std::vector<RectWithStep>
}
class "GA" as C_0002071076267832123339
class C_0002071076267832123339 {
+GA(size_t width, size_t max_iterations, size_t max_pop) : void
..
-CalculateFitnesses() : size_t
-CalculateLikelihoods() : void
-CreateChilds() : void
-CreateNewPopulation() : void
-Crossover(size_t parent_id_1, size_t parent_id_2) const : Gene
-Fitness(const Schedule & schedule) const : size_t
-GetIndex(double val) const : size_t
-MultInv() const : double
-Mutation() : void
+PrintStatistic() : void
+Solve(const Schedule & schedule, size_t expected_fit, unsigned int random_seed) : std::vector<Schedule>
-SwapRectanglesOrder(const std::vector<RectWithStep> & rectangles_order) const : std::vector<RectWithStep>
-getRectanglesOrder(const Schedule & schedule) const : std::vector<RectWithStep>
-makeSchedule(const std::vector<RectWithStep> & rectangles_order) const : Schedule
__
-childs_ : std::vector<Gene>
-iterations_statistic : std::vector<iteration_statistic>
-max_iterations_ : size_t
-max_population_ : size_t
-num_steps_ : size_t
-population_ : std::vector<Gene>
-width_ : size_t
}
class "GA::iteration_statistic" as C_0000207584391244251542
class C_0000207584391244251542 {
__
+avg : size_t
+min : size_t
+size : size_t
}
class "Renderer" as C_0002250562613440808018
class C_0002250562613440808018 {
+Renderer(size_t height, size_t width) : void
..
+AddRectangle(const RectWithPos & rect_with_pos) const : void
-Clear() const : void
+Draw(const Schedule & schedule) const : void
__
-buf : std::vector<std::vector<char>>
-height_ : size_t
-width_ : size_t
}
C_0000236531466166773997 - -> C_0000373589578875245130 : +rect
C_0000236531466166773997 o- - C_0001610257482604871553 : +pos
C_0000098590755926109064 o- - C_0000236531466166773997 : +rectangles
C_0000093946869327873909 ..> C_0000236531466166773997
C_0000093946869327873909 o- - C_0000098590755926109064 : -steps
C_0000084282768001716009 o- - C_0000236531466166773997 : +rect_with_pos
C_0000084282768001716009 - -> C_0000098590755926109064 : +step
C_0001366491833892222367 o- - C_0000084282768001716009 : +rectangles_order
C_0002071076267832123339 ..> C_0000093946869327873909
C_0002071076267832123339 ..> C_0000084282768001716009
C_0002071076267832123339 o- - C_0001366491833892222367 : -population_
C_0002071076267832123339 o- - C_0001366491833892222367 : -childs_
C_0000207584391244251542 - -+ C_0002071076267832123339
C_0002250562613440808018 ..> C_0000236531466166773997
C_0002250562613440808018 ..> C_0000093946869327873909

@enduml

PlantUML version 1.2020.02(Sun Mar 01 13:22:07 MSK 2020)
(GPL source distribution)
Java Runtime: OpenJDK Runtime Environment
JVM: OpenJDK 64-Bit Server VM
Java Version: 11.0.21+9-post-Ubuntu-0ubuntu122.04
Operating System: Linux
Default Encoding: UTF-8
Language: en
Country: US
--></g></svg>